<?xml version="1.0" encoding="UTF-8"?>
<svg id="Layer_1" data-name="Layer 1" xmlns="http://www.w3.org/2000/svg" viewBox="0 0 83.2 83.2">
  <path d="M7.6,25.2c-.43,0-.83-.17-1.13-.47L.47,18.73C.17,18.43,0,18.03,0,17.6s.17-.83.47-1.13L16.47.47C16.77.17,17.18,0,17.6,0s.83.17,1.13.47l6,6c.3.3.47.71.47,1.13s-.17.83-.47,1.13L8.73,24.73c-.3.3-.71.47-1.13.47ZM3.86,17.6l3.74,3.74,13.74-13.74-3.74-3.73L3.86,17.6Z"/>
  <path d="M12,41.6c-.42,0-.83-.17-1.13-.47L.47,30.73h0c-.3-.3-.47-.71-.47-1.13s.17-.83.47-1.13L28.47.47c.3-.3.71-.47,1.13-.47s.83.17,1.13.47l10.4,10.4h0c.3.3.47.71.47,1.13s-.17.83-.47,1.13l-28,28c-.3.3-.71.47-1.13.47ZM3.86,29.6l8.14,8.14,25.74-25.74L29.6,3.86,3.86,29.6Z"/>
  <path d="M65.6,83.2c-.43,0-.83-.17-1.13-.47l-6-6c-.3-.3-.47-.71-.47-1.13s.17-.83.47-1.13l16-16c.3-.3.71-.47,1.13-.47s.83.17,1.13.47l6,6c.62.62.62,1.64,0,2.27l-16,16c-.3.3-.71.47-1.13.47ZM61.86,75.6l3.74,3.74,13.74-13.74-3.74-3.73-13.74,13.73Z"/>
  <path d="M53.6,83.2c-.43,0-.83-.17-1.13-.47l-10.4-10.4h0c-.3-.3-.47-.71-.47-1.14s.17-.83.47-1.13l28-28c.3-.3.71-.47,1.13-.47s.83.17,1.13.47l10.4,10.4h0c.3.3.47.71.47,1.13s-.17.83-.47,1.13l-28,28c-.3.3-.71.47-1.13.47ZM45.46,71.2l8.14,8.14,25.74-25.74-8.14-8.14-25.74,25.74Z"/>
  <path d="M53.93,62.08c-.42,0-.82-.17-1.12-.47l-31.2-31.2c-.3-.3-.47-.71-.47-1.13s.17-.83.47-1.13l6.55-6.55c.3-.3.71-.47,1.13-.47s.83.17,1.13.47l31.2,31.2c.3.3.47.71.47,1.13s-.17.83-.47,1.13l-6.55,6.55h0c-.3.3-.71.47-1.14.47ZM24.99,29.28l28.93,28.94,4.29-4.29-28.93-28.93-4.29,4.29Z"/>
</svg>